# xmcd
#
# Track frame offsets:
#	330
#	14168
#	30509
#	42944
#	54954
#	68755
#	81708
#	94842
#	103872
#	114858
#	127140
#	140395
#	150220
#	165306
#	177073
#	186234
#	196870
#	208448
#	220278
#
# Disc length: 3085 seconds
#
# Revision: 1
# Processed by: cddbd v1.4PL0 Copyright (c) Steve Scherf et al.
# Submitted via: audiograbber 1.82.02
#
DISCID=0d0c0913
DTITLE=Johnny Tillotson - Sings The Golden Hits
DYEAR=1998
DGENRE=Pop/Country
TTITLE0=Patches
TTITLE1=Always On My Mind
TTITLE2=Roses Are Red
TTITLE3=Sealed With A Kiss
TTITLE4=Can't Help Falling In Love
TTITLE5=Judy Judy Judy
TTITLE6=You Can Never Stop Me Loving You
TTITLE7=All Shook Up
TTITLE8=All I have To Do Is Dream
TTITLE9=Let It Be Me
TTITLE10=All Alone Am I
TTITLE11=Wind Me Up (Let Me Go)
TTITLE12=Blowin' In The Wind
TTITLE13=Always
TTITLE14=She Understands Me
TTITLE15=Just One Time
TTITLE16=Oh Lonesome Me
TTITLE17=Almost Persuaded
TTITLE18=You Don't Know Me
EXTD=
EXTT0=
EXTT1=
EXTT2=
EXTT3=
EXTT4=
EXTT5=
EXTT6=
EXTT7=
EXTT8=
EXTT9=
EXTT10=
EXTT11=
EXTT12=
EXTT13=
EXTT14=
EXTT15=
EXTT16=
EXTT17=
EXTT18=
PLAYORDER=
